<svg width="30" height="42" viewBox="0 0 30 42" fill="none" xmlns="http://www.w3.org/2000/svg">
<path d="M27.9688 1.23432C28.3854 0.92182 28.8281 0.895778 29.2969 1.15619C29.7656 1.36453 30 1.72911 30 2.24994V39.7499C30 40.2708 29.7656 40.6354 29.2969 40.8437C28.8281 41.1041 28.3854 41.0781 27.9688 40.7656L25 37.2499L20.7812 40.7656C20.5208 40.9218 20.2604 40.9999 20 40.9999C19.7396 40.9999 19.4792 40.9218 19.2188 40.7656L15 37.2499L10.7812 40.7656C10.5208 40.9218 10.2604 40.9999 10 40.9999C9.73958 40.9999 9.47917 40.9218 9.21875 40.7656L5 37.2499L2.03125 40.7656C1.61458 41.0781 1.17188 41.1041 0.703125 40.8437C0.234375 40.6354 0 40.2708 0 39.7499V2.24994C0 1.72911 0.234375 1.36453 0.703125 1.15619C1.17188 0.895778 1.61458 0.92182 2.03125 1.23432L5 4.74994L9.21875 1.23432C9.47917 1.07807 9.73958 0.999945 10 0.999945C10.2604 0.999945 10.5208 1.07807 10.7812 1.23432L15 4.74994L19.2188 1.23432C19.4792 1.07807 19.7396 0.999945 20 0.999945C20.2604 0.999945 20.5208 1.07807 20.7812 1.23432L25 4.74994L27.9688 1.23432ZM25 29.1249V27.8749C25 27.4583 24.7917 27.2499 24.375 27.2499H5.625C5.20833 27.2499 5 27.4583 5 27.8749V29.1249C5 29.5416 5.20833 29.7499 5.625 29.7499H24.375C24.7917 29.7499 25 29.5416 25 29.1249ZM25 21.6249V20.3749C25 19.9583 24.7917 19.7499 24.375 19.7499H5.625C5.20833 19.7499 5 19.9583 5 20.3749V21.6249C5 22.0416 5.20833 22.2499 5.625 22.2499H24.375C24.7917 22.2499 25 22.0416 25 21.6249ZM25 14.1249V12.8749C25 12.4583 24.7917 12.2499 24.375 12.2499H5.625C5.20833 12.2499 5 12.4583 5 12.8749V14.1249C5 14.5416 5.20833 14.7499 5.625 14.7499H24.375C24.7917 14.7499 25 14.5416 25 14.1249Z" fill="white"/>
</svg>
