<svg width="30" height="40" viewBox="0 0 30 40" fill="none" xmlns="http://www.w3.org/2000/svg">
<path d="M13.4375 39.2188C12.1875 37.3958 10.7552 35.3385 9.14062 33.0469C7.57812 30.7552 6.45833 29.1406 5.78125 28.2031C5.10417 27.2656 4.32292 26.1198 3.4375 24.7656C2.55208 23.3594 1.95312 22.3698 1.64062 21.7969C1.38021 21.224 1.06771 20.4948 0.703125 19.6094C0.390625 18.724 0.182292 17.9688 0.078125 17.3438C0.0260417 16.6667 0 15.8854 0 15C0 10.8333 1.45833 7.29167 4.375 4.375C7.29167 1.45833 10.8333 0 15 0C19.1667 0 22.7083 1.45833 25.625 4.375C28.5417 7.29167 30 10.8333 30 15C30 15.8854 29.9479 16.6667 29.8438 17.3438C29.7917 17.9688 29.5833 18.724 29.2188 19.6094C28.9062 20.4948 28.5938 21.224 28.2812 21.7969C28.0208 22.3698 27.4479 23.3594 26.5625 24.7656C25.6771 26.1198 24.8958 27.2656 24.2188 28.2031C23.5417 29.1406 22.3958 30.7552 20.7812 33.0469C19.2188 35.3385 17.8125 37.3958 16.5625 39.2188C16.1979 39.7396 15.6771 40 15 40C14.3229 40 13.8021 39.7396 13.4375 39.2188ZM10.5469 19.4531C11.7969 20.651 13.2812 21.25 15 21.25C16.7188 21.25 18.1771 20.651 19.375 19.4531C20.625 18.2031 21.25 16.7188 21.25 15C21.25 13.2812 20.625 11.8229 19.375 10.625C18.1771 9.375 16.7188 8.75 15 8.75C13.2812 8.75 11.7969 9.375 10.5469 10.625C9.34896 11.8229 8.75 13.2812 8.75 15C8.75 16.7188 9.34896 18.2031 10.5469 19.4531Z" fill="#292929"/>
</svg>
