<svg width="258" height="363" viewBox="0 0 258 363" fill="none" xmlns="http://www.w3.org/2000/svg">
<g filter="url(#filter0_d_1352_5798)">
<path fill-rule="evenodd" clip-rule="evenodd" d="M246.768 117.86C246.768 141.168 239.973 162.891 228.251 181.164C227.97 181.754 227.662 182.34 227.326 182.921L149.039 318.279C139.974 333.952 117.311 333.952 108.246 318.279L29.9584 182.921C29.0209 181.3 28.3016 179.638 27.7854 177.959C17.2844 160.373 11.252 139.82 11.252 117.86C11.252 52.939 63.9741 0.310547 129.01 0.310547C194.046 0.310547 246.768 52.939 246.768 117.86ZM129.01 155.331C149.558 155.331 166.216 138.703 166.216 118.191C166.216 97.679 149.558 81.0507 129.01 81.0507C108.461 81.0507 91.803 97.679 91.803 118.191C91.803 138.703 108.461 155.331 129.01 155.331Z" fill="#8BDBB0"/>
</g>
<defs>
<filter id="filter0_d_1352_5798" x="0.251953" y="0.310547" width="257.516" height="361.723" filterUnits="userSpaceOnUse" color-interpolation-filters="sRGB">
<feFlood flood-opacity="0" result="BackgroundImageFix"/>
<feColorMatrix in="SourceAlpha" type="matrix" values="0 0 0 0 0 0 0 0 0 0 0 0 0 0 0 0 0 0 127 0" result="hardAlpha"/>
<feOffset dy="21"/>
<feGaussianBlur stdDeviation="5.5"/>
<feColorMatrix type="matrix" values="0 0 0 0 0 0 0 0 0 0 0 0 0 0 0 0 0 0 0.3 0"/>
<feBlend mode="normal" in2="BackgroundImageFix" result="effect1_dropShadow_1352_5798"/>
<feBlend mode="normal" in="SourceGraphic" in2="effect1_dropShadow_1352_5798" result="shape"/>
</filter>
</defs>
</svg>
