<svg width="42" height="42" viewBox="0 0 42 42" fill="none" xmlns="http://www.w3.org/2000/svg">
<path d="M25.4196 25.7053C26.7589 24.3661 27.4286 22.75 27.4286 20.8571C27.4286 18.9643 26.7589 17.3482 25.4196 16.0089C24.0804 14.6696 22.4643 14 20.5714 14C18.6786 14 17.0625 14.6696 15.7232 16.0089C14.3839 17.3482 13.7143 18.9643 13.7143 20.8571C13.7143 22.75 14.3839 24.3661 15.7232 25.7053C17.0625 27.0446 18.6786 27.7143 20.5714 27.7143C22.4643 27.7143 24.0804 27.0446 25.4196 25.7053ZM41.1429 17.9375V23.8839C41.1429 24.0982 41.0714 24.3036 40.9286 24.5C40.7857 24.6964 40.6071 24.8125 40.3929 24.8482L35.4375 25.5982C35.0982 26.5625 34.75 27.375 34.3929 28.0357C35.0179 28.9286 35.9732 30.1607 37.2589 31.7321C37.4375 31.9464 37.5268 32.1696 37.5268 32.4018C37.5268 32.6339 37.4464 32.8393 37.2857 33.0178C36.8036 33.6786 35.9196 34.6429 34.6339 35.9107C33.3482 37.1786 32.5089 37.8125 32.1161 37.8125C31.9018 37.8125 31.6696 37.7321 31.4196 37.5714L27.7232 34.6786C26.9375 35.0893 26.125 35.4286 25.2857 35.6964C25 38.125 24.7411 39.7857 24.5089 40.6786C24.3839 41.1786 24.0625 41.4286 23.5446 41.4286H17.5982C17.3482 41.4286 17.125 41.3482 16.9286 41.1875C16.75 41.0446 16.6518 40.8571 16.6339 40.625L15.8839 35.6964C15.0089 35.4107 14.2054 35.0803 13.4732 34.7053L9.69643 37.5714C9.51786 37.7321 9.29464 37.8125 9.02679 37.8125C8.77679 37.8125 8.55357 37.7143 8.35714 37.5178C6.10714 35.4821 4.63393 33.9821 3.9375 33.0178C3.8125 32.8393 3.75 32.6339 3.75 32.4018C3.75 32.1875 3.82143 31.9821 3.96429 31.7857C4.23214 31.4107 4.6875 30.8214 5.33036 30.0179C5.97321 29.1964 6.45536 28.5625 6.77679 28.1161C6.29464 27.2232 5.92857 26.3393 5.67857 25.4643L0.776786 24.7411C0.544643 24.7053 0.357143 24.5982 0.214286 24.4196C0.0714286 24.2232 0 24.0089 0 23.7768V17.8303C0 17.6161 0.0714286 17.4107 0.214286 17.2143C0.357143 17.0179 0.526786 16.9018 0.723214 16.8661L5.70536 16.1161C5.95536 15.2946 6.30357 14.4732 6.75 13.6518C6.03571 12.6339 5.08036 11.4018 3.88393 9.95535C3.70536 9.74106 3.61607 9.52678 3.61607 9.31249C3.61607 9.13392 3.69643 8.92856 3.85714 8.69642C4.32143 8.05356 5.19643 7.09821 6.48214 5.83035C7.78572 4.54463 8.63393 3.90178 9.02679 3.90178C9.25893 3.90178 9.49107 3.99106 9.72321 4.16964L13.4196 7.03571C14.2054 6.62499 15.0179 6.28571 15.8571 6.01785C16.1429 3.58928 16.4018 1.92856 16.6339 1.03571C16.7589 0.535706 17.0804 0.285706 17.5982 0.285706H23.5446C23.7946 0.285706 24.0089 0.366063 24.1875 0.526778C24.3839 0.669635 24.4911 0.857135 24.5089 1.08928L25.2589 6.01785C26.1339 6.30356 26.9375 6.63392 27.6696 7.00892L31.4732 4.14285C31.6339 3.98213 31.8482 3.90178 32.1161 3.90178C32.3482 3.90178 32.5714 3.99106 32.7857 4.16964C35.0893 6.29464 36.5625 7.81249 37.2054 8.72321C37.3304 8.86606 37.3929 9.06249 37.3929 9.31249C37.3929 9.52678 37.3214 9.73213 37.1786 9.92856C36.9107 10.3036 36.4554 10.9018 35.8125 11.7232C35.1696 12.5268 34.6875 13.1518 34.3661 13.5982C34.8304 14.4911 35.1964 15.3661 35.4643 16.2232L40.3661 16.9732C40.5982 17.0089 40.7857 17.125 40.9286 17.3214C41.0714 17.5 41.1429 17.7053 41.1429 17.9375Z" fill="#292929"/>
</svg>
